<svg width="200" height="200" viewBox="0 0 200 200" fill="none" xmlns="http://www.w3.org/2000/svg">
<rect width="200" height="200" rx="100" fill="#FF0042"/>
<path d="M100 50C79.5443 50 63 66.589 63 87.1C63 114.925 100 156 100 156C100 156 137 114.925 137 87.1C137 66.589 120.456 50 100 50ZM100 100.35C96.4954 100.35 93.1342 98.954 90.6561 96.4692C88.1779 93.9843 86.7857 90.6141 86.7857 87.1C86.7857 83.5859 88.1779 80.2157 90.6561 77.7308C93.1342 75.246 96.4954 73.85 100 73.85C103.505 73.85 106.866 75.246 109.344 77.7308C111.822 80.2157 113.214 83.5859 113.214 87.1C113.214 90.6141 111.822 93.9843 109.344 96.4692C106.866 98.954 103.505 100.35 100 100.35V100.35Z" fill="white"/>
</svg>
