<svg width="200" height="200" viewBox="0 0 200 200" fill="none" xmlns="http://www.w3.org/2000/svg">
<rect width="200" height="200" rx="100" fill="#FF0042"/>
<path d="M135.148 156.999C130.136 156.999 123.096 155.187 112.554 149.298C99.7343 142.11 89.8186 135.475 77.0685 122.76C64.7753 110.477 58.7931 102.525 50.4205 87.2923C40.9619 70.0934 42.5743 61.0781 44.3766 57.225C46.5231 52.6198 49.6913 49.8655 53.7865 47.1316C56.1125 45.6079 58.574 44.3018 61.1398 43.2298C61.3965 43.1194 61.6353 43.0141 61.8484 42.9192C63.1193 42.3467 65.0449 41.4817 67.484 42.4058C69.1118 43.0167 70.565 44.2668 72.8398 46.513C77.505 51.113 83.88 61.3579 86.2318 66.3892C87.8108 69.7802 88.8558 72.0186 88.8584 74.5291C88.8584 77.4684 87.3795 79.735 85.5848 82.1814C85.2485 82.6409 84.9147 83.0798 84.5912 83.5059C82.6374 86.0729 82.2086 86.8148 82.491 88.1394C83.0636 90.8013 87.3333 98.7257 94.3502 105.726C101.367 112.726 109.065 116.725 111.737 117.295C113.119 117.59 113.876 117.144 116.526 115.121C116.906 114.831 117.296 114.531 117.704 114.23C120.441 112.195 122.603 110.755 125.473 110.755H125.489C127.987 110.755 130.126 111.838 133.669 113.624C138.29 115.955 148.845 122.247 153.474 126.916C155.726 129.186 156.982 130.633 157.595 132.258C158.519 134.705 157.649 136.622 157.082 137.906C156.987 138.119 156.881 138.352 156.771 138.612C155.69 141.172 154.376 143.628 152.845 145.948C150.116 150.03 147.351 153.19 142.735 155.338C140.364 156.459 137.77 157.027 135.148 156.999Z" fill="white"/>
</svg>
