<svg width="200" height="200" viewBox="0 0 200 200" fill="none" xmlns="http://www.w3.org/2000/svg">
<rect width="200" height="200" rx="100" fill="#FF0042"/>
<path d="M147.3 54H53.7C47.265 54 42 59.2875 42 65.75V136.25C42 142.713 47.265 148 53.7 148H147.3C153.735 148 159 142.713 159 136.25V65.75C159 59.2875 153.735 54 147.3 54ZM144.96 78.9688L106.701 102.998C102.899 105.406 98.1015 105.406 94.299 102.998L56.04 78.9688C55.4534 78.6381 54.9397 78.1913 54.53 77.6554C54.1204 77.1196 53.8232 76.5058 53.6566 75.8513C53.4899 75.1968 53.4572 74.5151 53.5605 73.8476C53.6638 73.18 53.9009 72.5404 54.2574 71.9675C54.6139 71.3946 55.0825 70.9004 55.6347 70.5146C56.187 70.1288 56.8114 69.8596 57.4703 69.7233C58.1292 69.5869 58.8087 69.5862 59.4678 69.7212C60.127 69.8562 60.752 70.1241 61.305 70.5087L100.5 95.125L139.695 70.5087C140.248 70.1241 140.873 69.8562 141.532 69.7212C142.191 69.5862 142.871 69.5869 143.53 69.7233C144.189 69.8596 144.813 70.1288 145.365 70.5146C145.917 70.9004 146.386 71.3946 146.743 71.9675C147.099 72.5404 147.336 73.18 147.439 73.8476C147.543 74.5151 147.51 75.1968 147.343 75.8513C147.177 76.5058 146.88 77.1196 146.47 77.6554C146.06 78.1913 145.547 78.6381 144.96 78.9688V78.9688Z" fill="white"/>
</svg>
