<svg width="43" height="41" viewBox="0 0 43 41" fill="none" xmlns="http://www.w3.org/2000/svg">
<path d="M9.02414 4.55758C9.02354 5.76572 8.54759 6.92414 7.70099 7.778C6.85439 8.63186 5.70649 9.11121 4.50981 9.11061C3.31314 9.11 2.16571 8.62949 1.31996 7.77478C0.474205 6.92007 -0.000597772 5.76117 5.64824e-07 4.55303C0.000598902 3.34488 0.47655 2.18646 1.32315 1.33261C2.16975 0.478749 3.31765 -0.0006035 4.51432 5.70236e-07C5.711 0.000604641 6.85842 0.481116 7.70418 1.33583C8.54993 2.19054 9.02473 3.34944 9.02414 4.55758V4.55758ZM9.1595 12.4838H0.135362V41H9.1595V12.4838ZM23.4176 12.4838H14.4386V41H23.3274V26.0358C23.3274 17.6996 34.0887 16.9252 34.0887 26.0358V41H43V22.9382C43 8.88512 27.0724 9.40898 23.3274 16.3103L23.4176 12.4838V12.4838Z" fill="white"/>
</svg>
